<?xml version="1.0" standalone="no"?>
<!DOCTYPE svg PUBLIC "-//W3C//DTD SVG 20010904//EN"
 "http://www.w3.org/TR/2001/REC-SVG-20010904/DTD/svg10.dtd">
<svg version="1.0" xmlns="http://www.w3.org/2000/svg"
 width="512.000000pt" height="512.000000pt" viewBox="0 0 512.000000 512.000000"
 preserveAspectRatio="xMidYMid meet">

<g transform="translate(0.000000,512.000000) scale(0.100000,-0.100000)"
fill="#000000" stroke="none">
<path d="M888 4065 c-132 -33 -267 -113 -365 -218 -72 -77 -120 -160 -160
-272 l-28 -80 0 -870 0 -870 27 -78 c76 -223 249 -396 473 -473 79 -28 84 -28
420 -35 187 -4 352 -8 368 -8 l27 -1 0 -223 c0 -249 8 -296 60 -359 68 -82
199 -104 299 -50 29 15 212 162 407 327 l356 300 422 6 c457 7 483 10 610 68
191 86 336 247 404 448 l27 78 0 870 0 870 -28 80 c-41 117 -100 210 -186 295
-88 87 -173 139 -286 178 l-80 27 -1355 2 c-1127 1 -1365 -1 -1412 -12z m562
-1131 c136 -61 220 -205 206 -353 -11 -126 -89 -236 -204 -292 -71 -34 -198
-38 -274 -9 -76 28 -159 104 -195 178 -25 51 -28 68 -28 157 0 90 3 105 28
153 49 94 141 167 241 193 56 15 161 2 226 -27z m1003 3 c74 -35 128 -86 167
-159 29 -54 35 -75 38 -148 5 -118 -19 -183 -102 -266 -83 -83 -148 -107 -266
-102 -73 3 -94 9 -148 38 -74 39 -124 92 -160 170 -22 46 -26 70 -27 140 0 73
4 94 28 145 47 101 139 178 244 205 61 15 167 4 226 -23z m1013 -7 c265 -130
261 -513 -6 -639 -48 -23 -68 -26 -155 -26 -86 0 -106 4 -145 24 -107 57 -167
130 -196 240 -73 289 233 534 502 401z"/>
</g>
</svg>
